<svg xmlns="http://www.w3.org/2000/svg" width="720" height="440" viewBox="0 0 720 440" role="img" aria-labelledby="title desc">
  <title id="title">Product Sheet template preview</title>
  <desc id="desc">Structured preview with brand banner, top copy, large product hero, materials strip, and description block.</desc>
  <rect width="720" height="440" fill="#eef2f5"/>
  <rect x="28" y="24" width="664" height="392" rx="26" fill="#fbfcfd" stroke="#cbd5df" stroke-width="2"/>
  <rect x="52" y="46" width="616" height="54" rx="18" fill="#163047"/>
  <rect x="72" y="62" width="122" height="22" rx="11" fill="#f8fafc" opacity="0.95"/>
  <rect x="516" y="62" width="128" height="10" rx="5" fill="#9fb4c5" opacity="0.9"/>
  <rect x="558" y="78" width="86" height="8" rx="4" fill="#7e97aa" opacity="0.85"/>
  <rect x="52" y="118" width="616" height="78" rx="20" fill="#f3f6f9" stroke="#d8e0e8"/>
  <rect x="76" y="138" width="132" height="18" rx="9" fill="#c87137"/>
  <rect x="76" y="164" width="252" height="10" rx="5" fill="#547086"/>
  <rect x="76" y="180" width="210" height="8" rx="4" fill="#8ea2b4"/>
  <rect x="540" y="138" width="104" height="34" rx="12" fill="#dce5ec"/>
  <rect x="552" y="150" width="80" height="10" rx="5" fill="#869aac"/>
  <rect x="52" y="214" width="616" height="122" rx="24" fill="#e8eef3"/>
  <rect x="80" y="238" width="118" height="74" rx="14" fill="#f8fafc" stroke="#d0d8e0"/>
  <rect x="214" y="228" width="292" height="94" rx="18" fill="#ffffff" stroke="#b8c5d1" stroke-width="2"/>
  <rect x="534" y="232" width="106" height="86" rx="16" fill="#f8fafc" stroke="#d0d8e0"/>
  <circle cx="360" cy="275" r="54" fill="#20364c"/>
  <rect x="323" y="236" width="74" height="88" rx="18" fill="#d7803d"/>
  <rect x="564" y="250" width="46" height="10" rx="5" fill="#8da1b1"/>
  <rect x="550" y="268" width="60" height="8" rx="4" fill="#a7b6c2"/>
  <rect x="550" y="282" width="72" height="8" rx="4" fill="#a7b6c2"/>
  <rect x="550" y="296" width="52" height="8" rx="4" fill="#a7b6c2"/>
  <rect x="52" y="350" width="292" height="42" rx="16" fill="#f4f7fa" stroke="#d8e0e8"/>
  <rect x="364" y="350" width="304" height="42" rx="16" fill="#f4f7fa" stroke="#d8e0e8"/>
  <rect x="74" y="366" width="56" height="12" rx="6" fill="#8ca1b1"/>
  <rect x="140" y="366" width="56" height="12" rx="6" fill="#8ca1b1"/>
  <rect x="206" y="366" width="56" height="12" rx="6" fill="#8ca1b1"/>
  <rect x="386" y="362" width="204" height="8" rx="4" fill="#596f83"/>
  <rect x="386" y="376" width="168" height="8" rx="4" fill="#9aabb8"/>
</svg>
