<svg xmlns="http://www.w3.org/2000/svg" width="720" height="440" viewBox="0 0 720 440" role="img" aria-labelledby="title desc">
  <title id="title">Product Sheet template preview</title>
  <desc id="desc">Minimal preview with a soft banner, SKU block, product hero, materials strip, and description area.</desc>
  <defs>
    <linearGradient id="bgB" x1="0" y1="0" x2="1" y2="1">
      <stop offset="0%" stop-color="#faf8f4"/>
      <stop offset="100%" stop-color="#f1ece5"/>
    </linearGradient>
  </defs>
  <rect width="720" height="440" fill="#edf2f6"/>
  <rect x="28" y="24" width="664" height="392" rx="28" fill="url(#bgB)" stroke="#d5ddd9" stroke-width="2"/>
  <rect x="52" y="46" width="616" height="52" rx="18" fill="#30414a"/>
  <rect x="74" y="62" width="116" height="20" rx="10" fill="#f7f5f1"/>
  <rect x="518" y="61" width="120" height="10" rx="5" fill="#c0cbc7"/>
  <rect x="548" y="77" width="90" height="8" rx="4" fill="#d5ddd8"/>
  <rect x="52" y="118" width="616" height="74" rx="20" fill="#f7f4ef" stroke="#dfddd6"/>
  <rect x="78" y="136" width="130" height="18" rx="9" fill="#d88a55"/>
  <rect x="78" y="162" width="208" height="10" rx="5" fill="#71848d"/>
  <rect x="78" y="178" width="160" height="8" rx="4" fill="#a4b2b6"/>
  <rect x="536" y="136" width="104" height="34" rx="12" fill="#ebe6de"/>
  <rect x="552" y="149" width="72" height="8" rx="4" fill="#98a6ad"/>
  <rect x="52" y="212" width="616" height="118" rx="24" fill="#f9f7f3" stroke="#e1ded8"/>
  <rect x="78" y="234" width="110" height="72" rx="16" fill="#f1ece5"/>
  <rect x="212" y="228" width="302" height="88" rx="20" fill="#fcfbf8" stroke="#d9d7d0"/>
  <ellipse cx="362" cy="292" rx="74" ry="18" fill="#e2ddd6"/>
  <rect x="324" y="236" width="76" height="80" rx="20" fill="#e29a63"/>
  <circle cx="362" cy="250" r="38" fill="#374a55"/>
  <rect x="538" y="232" width="102" height="72" rx="16" fill="#f1ece5"/>
  <rect x="556" y="248" width="54" height="10" rx="5" fill="#8ea0a8"/>
  <rect x="550" y="266" width="68" height="8" rx="4" fill="#a5b3b8"/>
  <rect x="550" y="280" width="60" height="8" rx="4" fill="#b7c1c3"/>
  <rect x="52" y="348" width="280" height="42" rx="16" fill="#f8f6f2" stroke="#dedbd5"/>
  <rect x="74" y="363" width="56" height="12" rx="6" fill="#d7e0e5"/>
  <rect x="140" y="363" width="56" height="12" rx="6" fill="#d7e0e5"/>
  <rect x="206" y="363" width="56" height="12" rx="6" fill="#d7e0e5"/>
  <rect x="356" y="348" width="312" height="42" rx="16" fill="#f8f6f2" stroke="#dedbd5"/>
  <rect x="380" y="362" width="208" height="8" rx="4" fill="#6f818b"/>
  <rect x="380" y="376" width="160" height="8" rx="4" fill="#a5b2b7"/>
</svg>
