<svg xmlns="http://www.w3.org/2000/svg" width="360" height="220" viewBox="0 0 360 220" role="img" aria-labelledby="title desc">
  <title id="title">Marketing Poster selector preview</title>
  <desc id="desc">Simple marketing-card preview with a top band, hero block, selling-point list, and bottom support strip.</desc>
  <rect width="360" height="220" fill="#e7e7e7"/>
  <rect x="78" y="8" width="204" height="204" rx="12" fill="#f6f3f1"/>
  <rect x="88" y="18" width="184" height="22" rx="4" fill="#f7e3e1"/>
  <rect x="231" y="18" width="37" height="16" rx="4" fill="#ef6363"/>
  <rect x="88" y="48" width="80" height="86" rx="10" fill="#ecebea"/>
  <rect x="176" y="52" width="92" height="82" rx="6" fill="#f2f0ef"/>
  <circle cx="181" cy="69" r="3" fill="#ef6363"/>
  <rect x="190" y="68" width="74" height="2" rx="1" fill="#dad7d6"/>
  <circle cx="181" cy="90" r="3" fill="#ef6363"/>
  <rect x="190" y="89" width="74" height="2" rx="1" fill="#dad7d6"/>
  <circle cx="181" cy="111" r="3" fill="#ef6363"/>
  <rect x="190" y="110" width="74" height="2" rx="1" fill="#dad7d6"/>
  <circle cx="181" cy="132" r="3" fill="#ef6363"/>
  <rect x="190" y="131" width="74" height="2" rx="1" fill="#dad7d6"/>
  <rect x="88" y="145" width="180" height="12" rx="2" fill="#f7e3e1"/>
  <rect x="88" y="165" width="38" height="24" rx="4" fill="#ebe7e4"/>
  <rect x="130" y="165" width="38" height="24" rx="4" fill="#ebe7e4"/>
  <rect x="172" y="165" width="38" height="24" rx="4" fill="#ebe7e4"/>
  <rect x="214" y="165" width="38" height="24" rx="4" fill="#ebe7e4"/>
</svg>
