<svg xmlns="http://www.w3.org/2000/svg" width="360" height="220" viewBox="0 0 360 220" role="img" aria-labelledby="title desc">
  <title id="title">Product Sheet selector preview</title>
  <desc id="desc">Simple catalog-card preview with a banner, SKU area, product block, detail strip, and lower information block.</desc>
  <rect width="360" height="220" fill="#e7e7e7"/>
  <rect x="78" y="8" width="204" height="204" rx="12" fill="#f6f3f1"/>
  <rect x="88" y="18" width="184" height="22" rx="4" fill="#f7e3e1"/>
  <rect x="231" y="18" width="37" height="16" rx="4" fill="#ef6363"/>
  <rect x="88" y="48" width="184" height="26" rx="8" fill="#f2f0ef"/>
  <rect x="98" y="56" width="48" height="10" rx="3" fill="#ef6363"/>
  <rect x="88" y="82" width="120" height="70" rx="10" fill="#ecebea"/>
  <rect x="214" y="82" width="58" height="70" rx="8" fill="#f2f0ef"/>
  <rect x="224" y="95" width="38" height="2" rx="1" fill="#dad7d6"/>
  <rect x="224" y="108" width="38" height="2" rx="1" fill="#dad7d6"/>
  <rect x="224" y="121" width="38" height="2" rx="1" fill="#dad7d6"/>
  <rect x="88" y="160" width="82" height="18" rx="4" fill="#ebe7e4"/>
  <rect x="174" y="160" width="98" height="18" rx="4" fill="#f7e3e1"/>
  <rect x="88" y="184" width="184" height="8" rx="2" fill="#ebe7e4"/>
</svg>
