<svg xmlns="http://www.w3.org/2000/svg" width="720" height="440" viewBox="0 0 720 440" role="img" aria-labelledby="title desc">
  <title id="title">Marketing Poster template preview</title>
  <desc id="desc">Minimal preview with a soft header, hero composition, marketing emphasis, and bottom support area.</desc>
  <defs>
    <linearGradient id="bgA" x1="0" y1="0" x2="1" y2="1">
      <stop offset="0%" stop-color="#f7fafc"/>
      <stop offset="100%" stop-color="#eef3f7"/>
    </linearGradient>
  </defs>
  <rect width="720" height="440" fill="#edf2f6"/>
  <rect x="28" y="24" width="664" height="392" rx="28" fill="url(#bgA)" stroke="#d2dbe4" stroke-width="2"/>
  <rect x="52" y="46" width="616" height="50" rx="18" fill="#1e3448"/>
  <rect x="74" y="61" width="108" height="20" rx="10" fill="#f7fafc"/>
  <rect x="522" y="61" width="118" height="20" rx="10" fill="#dde6ed"/>
  <rect x="52" y="118" width="616" height="176" rx="24" fill="#f8fbfd" stroke="#dce4eb"/>
  <rect x="74" y="138" width="232" height="136" rx="20" fill="#e6eef4"/>
  <circle cx="164" cy="200" r="44" fill="#bfd0dd"/>
  <rect x="124" y="172" width="82" height="60" rx="16" fill="#dce8f0"/>
  <rect x="332" y="138" width="314" height="136" rx="20" fill="#f2f6fa"/>
  <ellipse cx="434" cy="226" rx="70" ry="22" fill="#dce4ec"/>
  <rect x="390" y="150" width="88" height="96" rx="24" fill="#e18c53"/>
  <circle cx="434" cy="166" r="36" fill="#27435a"/>
  <rect x="520" y="152" width="92" height="18" rx="9" fill="#f2c6a6"/>
  <rect x="508" y="184" width="104" height="10" rx="5" fill="#90a5b6"/>
  <rect x="492" y="204" width="120" height="10" rx="5" fill="#aab9c5"/>
  <rect x="506" y="224" width="106" height="10" rx="5" fill="#bcc8d1"/>
  <rect x="52" y="314" width="390" height="54" rx="18" fill="#f7fafc" stroke="#dce4eb"/>
  <rect x="78" y="332" width="164" height="10" rx="5" fill="#5d778b"/>
  <rect x="78" y="349" width="122" height="8" rx="4" fill="#9babb8"/>
  <rect x="466" y="314" width="202" height="54" rx="18" fill="#f7fafc" stroke="#dce4eb"/>
  <rect x="488" y="332" width="96" height="10" rx="5" fill="#8ea4b4"/>
  <rect x="52" y="384" width="616" height="18" rx="9" fill="#e7edf2"/>
  <rect x="74" y="387" width="120" height="12" rx="6" fill="#ffffff"/>
  <rect x="206" y="387" width="120" height="12" rx="6" fill="#ffffff"/>
  <rect x="338" y="387" width="120" height="12" rx="6" fill="#ffffff"/>
  <rect x="470" y="387" width="120" height="12" rx="6" fill="#ffffff"/>
</svg>
