<svg xmlns="http://www.w3.org/2000/svg" width="720" height="440" viewBox="0 0 720 440" role="img" aria-labelledby="title desc">
  <title id="title">Marketing Poster template preview</title>
  <desc id="desc">Structured preview with brand header, scenario panel, hero product panel, callout lane, title block, and bottom gallery area.</desc>
  <rect width="720" height="440" fill="#eef2f5"/>
  <rect x="28" y="24" width="664" height="392" rx="26" fill="#fbfcfd" stroke="#cbd5df" stroke-width="2"/>
  <rect x="52" y="46" width="616" height="52" rx="18" fill="#163047"/>
  <rect x="74" y="61" width="112" height="22" rx="11" fill="#f8fafc" opacity="0.95"/>
  <rect x="520" y="61" width="124" height="22" rx="11" fill="#d4dee6" opacity="0.9"/>
  <rect x="52" y="118" width="258" height="164" rx="22" fill="#e6edf3"/>
  <rect x="72" y="140" width="218" height="120" rx="18" fill="#f8fafc" stroke="#d0d8e0"/>
  <rect x="84" y="152" width="194" height="96" rx="14" fill="#cfdbe5"/>
  <circle cx="170" cy="198" r="40" fill="#9eb2c3"/>
  <rect x="340" y="118" width="328" height="164" rx="22" fill="#f3f6f9" stroke="#d8e0e8"/>
  <rect x="534" y="138" width="98" height="18" rx="9" fill="#c87137"/>
  <rect x="520" y="172" width="114" height="10" rx="5" fill="#7f96a9"/>
  <rect x="508" y="194" width="126" height="10" rx="5" fill="#9caebb"/>
  <rect x="524" y="216" width="110" height="10" rx="5" fill="#b2c0ca"/>
  <circle cx="440" cy="200" r="56" fill="#20364c"/>
  <rect x="403" y="148" width="74" height="116" rx="20" fill="#d7803d"/>
  <rect x="52" y="302" width="448" height="52" rx="18" fill="#f4f7fa" stroke="#d8e0e8"/>
  <rect x="76" y="320" width="182" height="10" rx="5" fill="#526f84"/>
  <rect x="76" y="338" width="146" height="8" rx="4" fill="#95a8b7"/>
  <rect x="522" y="302" width="146" height="52" rx="18" fill="#f4f7fa" stroke="#d8e0e8"/>
  <rect x="544" y="320" width="102" height="10" rx="5" fill="#8ea2b3"/>
  <rect x="52" y="370" width="616" height="28" rx="14" fill="#e8eef3" stroke="#d0d8e0"/>
  <rect x="72" y="377" width="120" height="14" rx="7" fill="#ffffff" stroke="#d3dce4"/>
  <rect x="206" y="377" width="120" height="14" rx="7" fill="#ffffff" stroke="#d3dce4"/>
  <rect x="340" y="377" width="120" height="14" rx="7" fill="#ffffff" stroke="#d3dce4"/>
  <rect x="474" y="377" width="120" height="14" rx="7" fill="#ffffff" stroke="#d3dce4"/>
</svg>
